<svg xmlns="http://www.w3.org/2000/svg" width="72" height="72" viewBox="0 0 72 72">
  <g id="Group_10509" data-name="Group 10509" transform="translate(15809.5 6854.5)">
    <g id="Group_10498" data-name="Group 10498" transform="translate(-393.803 -49)">
      <path id="Path_12240" data-name="Path 12240" d="M385.138,134.716a1.97,1.97,0,0,0-.579-1.329,2.035,2.035,0,0,0-1.456-.579,3.741,3.741,0,0,0-3.608,3.848l.122,3.736-.693,2.807c-.079-.007-.157-.023-.237-.023a2.623,2.623,0,0,0-1.868.772l-4.175,4.178-1.513.262a4.285,4.285,0,0,0-2.3,1.186L366,152.4a4.253,4.253,0,0,0-1.251,2.92l-.11,4.923a3,3,0,0,0-2.293,2.9l-.066,6.143a3.066,3.066,0,0,0,3.026,3.091l10.193.11h.034a3.066,3.066,0,0,0,3.057-3.026l.066-6.143a3.061,3.061,0,0,0-2.226-2.973l.056-.384a5.137,5.137,0,0,1,1.457-2.9l4.782-4.781a7.267,7.267,0,0,0,2.088-4.369l.508-4.817a2.819,2.819,0,0,0,.057-.543v-.01s0,0,0,0c0-.024,0-.047,0-.072Zm-7.592,28.6-.066,6.143a1.931,1.931,0,0,1-.587,1.367,1.966,1.966,0,0,1-1.379.557l-10.192-.109a1.953,1.953,0,0,1-1.925-1.966l.066-6.143a1.953,1.953,0,0,1,1.945-1.925h.022l10.192.109a1.947,1.947,0,0,1,1.924,1.967Zm4.4-11.81-4.782,4.781a6.244,6.244,0,0,0-1.772,3.52l-.062.424-9.567-.1.107-4.78a3.142,3.142,0,0,1,.925-2.158l2.831-2.831a3.166,3.166,0,0,1,1.7-.876l1.69-.292c.019,0,.035-.016.054-.021a.526.526,0,0,0,.105-.041,516.19,516.19,0,0,1,.141-.094l4.3-4.3a1.572,1.572,0,0,1,2.162,0,1.53,1.53,0,0,1,0,2.161l-4.939,4.939a.557.557,0,0,0,.788.787l4.939-4.939a2.606,2.606,0,0,0-.566-4.154l.728-2.944a.62.62,0,0,0,0-.075.512.512,0,0,0,.013-.076l-.124-3.812a2.624,2.624,0,0,1,2.525-2.7.832.832,0,0,1,.638.253.849.849,0,0,1,.253.579l.247,7.721-.562,5.332a6.168,6.168,0,0,1-1.77,3.7Z" transform="translate(-15740.935 -6917.388)" fill="#315e9c" stroke="#315e9c" stroke-width="0.5"/>
      <path id="Path_12241" data-name="Path 12241" d="M480.926,434.316a1.445,1.445,0,1,1-1.445-1.445,1.445,1.445,0,0,1,1.445,1.445" transform="translate(-15845.18 -7187.62)" fill="#315e9c" stroke="#315e9c" stroke-width="0.5"/>
      <path id="Path_12242" data-name="Path 12242" d="M127.45,160.988a3.011,3.011,0,0,0-1.372-.76l-.11-4.917a4.249,4.249,0,0,0-1.251-2.92l-2.831-2.831a4.28,4.28,0,0,0-2.294-1.185l-1.515-.262-4.175-4.178a2.622,2.622,0,0,0-1.868-.772c-.081,0-.158.016-.237.023l-.693-2.807.122-3.737a3.742,3.742,0,0,0-3.614-3.847,2.02,2.02,0,0,0-1.449.579,1.972,1.972,0,0,0-.579,1.332l-.247,7.765c0,.023,0,.046,0,.069h0v0a2.811,2.811,0,0,0,.058.552l.508,4.815a7.274,7.274,0,0,0,2.088,4.37l4.782,4.781a5.134,5.134,0,0,1,1.457,2.893l.056.386a3.062,3.062,0,0,0-2.226,2.973l.066,6.143a3.066,3.066,0,0,0,3.058,3.026h.034l10.192-.109a3.066,3.066,0,0,0,3.026-3.091l-.066-6.143a3.04,3.04,0,0,0-.922-2.152Zm-13.888-4.713-4.782-4.781a6.152,6.152,0,0,1-1.768-3.7l-.562-5.332.247-7.718a.851.851,0,0,1,.253-.582.834.834,0,0,1,.631-.253,2.625,2.625,0,0,1,2.532,2.7l-.123,3.813a.5.5,0,0,0,.013.076.542.542,0,0,0,0,.075l.728,2.944a2.6,2.6,0,0,0-.566.418,2.644,2.644,0,0,0,0,3.735l4.939,4.939a.557.557,0,0,0,.788-.787l-4.939-4.939a1.53,1.53,0,0,1,0-2.161,1.571,1.571,0,0,1,2.161,0l4.3,4.3a.582.582,0,0,0,.049.032.554.554,0,0,0,.092.061.525.525,0,0,0,.105.041.494.494,0,0,0,.054.021l1.691.292a3.161,3.161,0,0,1,1.694.875l2.831,2.831a3.147,3.147,0,0,1,.925,2.158l.107,4.781-9.567.1-.062-.426a6.253,6.253,0,0,0-1.773-3.52Zm13.2,14.4a1.928,1.928,0,0,1-1.367.587l-10.192.109a1.953,1.953,0,0,1-1.966-1.924l-.066-6.143a1.947,1.947,0,0,1,1.925-1.966l10.192-.109a1.953,1.953,0,0,1,1.966,1.924l.066,6.143a1.933,1.933,0,0,1-.557,1.379Z" transform="translate(-15509.531 -6917.377)" fill="#315e9c" stroke="#315e9c" stroke-width="0.5"/>
      <path id="Path_12243" data-name="Path 12243" d="M195.776,434.316a1.445,1.445,0,1,1-1.445-1.445,1.445,1.445,0,0,1,1.445,1.445" transform="translate(-15588.378 -7187.62)" fill="#315e9c" stroke="#315e9c" stroke-width="0.5"/>
      <path id="Path_12244" data-name="Path 12244" d="M236.148,52.214V50.406a9.643,9.643,0,0,0,2.309-.956l1.28,1.28a1.492,1.492,0,0,0,2.108,0l1.577-1.577a1.492,1.492,0,0,0,0-2.108l-1.28-1.28a9.634,9.634,0,0,0,.955-2.309h1.808a1.494,1.494,0,0,0,1.492-1.492V39.74a1.494,1.494,0,0,0-1.492-1.492H243.1a9.666,9.666,0,0,0-.955-2.309l1.28-1.28a1.492,1.492,0,0,0,0-2.108l-1.577-1.578a1.494,1.494,0,0,0-2.108,0l-1.28,1.28a9.649,9.649,0,0,0-2.309-.956V29.489A1.5,1.5,0,0,0,234.655,28h-2.224a1.494,1.494,0,0,0-1.492,1.492V31.3a9.651,9.651,0,0,0-2.309.956l-1.28-1.281a1.494,1.494,0,0,0-2.108,0l-1.577,1.577a1.492,1.492,0,0,0,0,2.108l1.28,1.28a9.631,9.631,0,0,0-.955,2.309H222.18a1.494,1.494,0,0,0-1.492,1.492v2.224a1.494,1.494,0,0,0,1.492,1.492h1.808a9.665,9.665,0,0,0,.955,2.309l-1.28,1.28a1.492,1.492,0,0,0,0,2.108l1.577,1.577a1.492,1.492,0,0,0,2.108,0l1.28-1.28a9.65,9.65,0,0,0,2.309.956v1.809a1.494,1.494,0,0,0,1.492,1.492h2.224a1.5,1.5,0,0,0,1.494-1.492Zm-1.113,0a.375.375,0,0,1-.379.379h-2.224a.375.375,0,0,1-.379-.379V49.979c0-.017-.009-.032-.01-.05a.561.561,0,0,0-.022-.111.538.538,0,0,0-.038-.1.558.558,0,0,0-.059-.087.535.535,0,0,0-.072-.076.5.5,0,0,0-.086-.058.55.55,0,0,0-.1-.045c-.017-.005-.029-.017-.047-.021a8.561,8.561,0,0,1-2.776-1.149c-.015-.009-.032-.01-.048-.019a.549.549,0,0,0-.1-.04.536.536,0,0,0-.1-.02.566.566,0,0,0-.1,0,.515.515,0,0,0-.106.021.532.532,0,0,0-.093.04.537.537,0,0,0-.095.063c-.013.011-.029.016-.042.028l-1.583,1.583a.378.378,0,0,1-.533,0l-1.577-1.577a.38.38,0,0,1,0-.534l1.583-1.583a.5.5,0,0,0,.028-.043.506.506,0,0,0,.062-.094.515.515,0,0,0,.041-.1.547.547,0,0,0,.02-.1.535.535,0,0,0,0-.105.493.493,0,0,0-.02-.1.515.515,0,0,0-.041-.1c-.008-.016-.009-.033-.018-.048a8.537,8.537,0,0,1-1.149-2.776c0-.017-.016-.03-.021-.047a.614.614,0,0,0-.1-.189.523.523,0,0,0-.075-.071.482.482,0,0,0-.09-.06.55.55,0,0,0-.093-.037.532.532,0,0,0-.114-.023c-.017,0-.031-.009-.048-.009H222.18a.375.375,0,0,1-.379-.379V39.74a.375.375,0,0,1,.379-.379h2.236a.544.544,0,0,0,.2-.041,1.149,1.149,0,0,0,.169-.107.481.481,0,0,0,.051-.057.521.521,0,0,0,.068-.1.54.54,0,0,0,.032-.077.468.468,0,0,0,.022-.054,8.549,8.549,0,0,1,1.149-2.776c.009-.015.01-.032.018-.048a.507.507,0,0,0,.041-.1.6.6,0,0,0,.02-.1.557.557,0,0,0,0-.105.527.527,0,0,0-.02-.1.515.515,0,0,0-.041-.1.548.548,0,0,0-.062-.094c-.011-.013-.016-.03-.028-.043l-1.583-1.583a.38.38,0,0,1,0-.534l1.577-1.577a.378.378,0,0,1,.533,0l1.583,1.583.007.005a.533.533,0,0,0,.16.106c.013.006.027.01.041.016a.568.568,0,0,0,.184.036h0a.526.526,0,0,0,.237-.059.561.561,0,0,0,.063-.028,8.545,8.545,0,0,1,2.776-1.149c.017,0,.03-.016.047-.021a.611.611,0,0,0,.189-.1.52.52,0,0,0,.169-.259.5.5,0,0,0,.022-.111c0-.017.01-.032.01-.05V29.489a.375.375,0,0,1,.379-.379h2.224a.375.375,0,0,1,.379.379v2.235c0,.017.009.032.01.05a.559.559,0,0,0,.022.111.541.541,0,0,0,.038.1.554.554,0,0,0,.059.087.536.536,0,0,0,.072.076.5.5,0,0,0,.086.058.552.552,0,0,0,.1.045c.017.005.03.017.047.021a8.561,8.561,0,0,1,2.776,1.149.6.6,0,0,0,.063.028.432.432,0,0,0,.051.023.553.553,0,0,0,.186.036h0a.558.558,0,0,0,.184-.036l.041-.016a.548.548,0,0,0,.16-.106l.007-.005,1.583-1.583a.378.378,0,0,1,.533,0l1.577,1.577a.38.38,0,0,1,0,.534l-1.583,1.583a.761.761,0,0,0-.131.231.543.543,0,0,0-.02.1.528.528,0,0,0,0,.105.5.5,0,0,0,.02.1.517.517,0,0,0,.041.1.5.5,0,0,0,.018.048,8.538,8.538,0,0,1,1.149,2.776.46.46,0,0,0,.022.054.535.535,0,0,0,.032.077.527.527,0,0,0,.069.1.644.644,0,0,0,.051.057.566.566,0,0,0,.109.074.521.521,0,0,0,.059.033.542.542,0,0,0,.2.041H244.9a.375.375,0,0,1,.379.379v2.224a.375.375,0,0,1-.379.379h-2.235c-.017,0-.032.009-.049.01a.532.532,0,0,0-.113.023.493.493,0,0,0-.094.037.505.505,0,0,0-.09.061.558.558,0,0,0-.075.071.583.583,0,0,0-.059.087.562.562,0,0,0-.045.1c-.005.017-.017.03-.021.047a8.551,8.551,0,0,1-1.149,2.776c-.009.015-.01.032-.018.048a.5.5,0,0,0-.041.1.6.6,0,0,0-.02.1.557.557,0,0,0,0,.105.527.527,0,0,0,.02.1.515.515,0,0,0,.041.1.55.55,0,0,0,.062.094c.011.013.016.03.028.043l1.583,1.583a.38.38,0,0,1,0,.534l-1.577,1.577a.377.377,0,0,1-.533,0l-1.583-1.583c-.013-.013-.03-.017-.043-.028a.527.527,0,0,0-.094-.063.613.613,0,0,0-.093-.041.558.558,0,0,0-.416.037.509.509,0,0,0-.048.019,8.545,8.545,0,0,1-2.776,1.149c-.017,0-.03.016-.047.021a.61.61,0,0,0-.189.1.52.52,0,0,0-.169.259.5.5,0,0,0-.022.111c0,.017-.01.032-.01.05v2.236Z" transform="translate(-15613.416 -6822.997)" fill="#315e9c" stroke="#315e9c" stroke-width="0.5"/>
      <path id="Path_12245" data-name="Path 12245" d="M314.62,117.53a4.39,4.39,0,1,0-4.39,4.39A4.4,4.4,0,0,0,314.62,117.53Zm-4.39,3.277a3.277,3.277,0,1,1,3.277-3.277A3.28,3.28,0,0,1,310.23,120.807Z" transform="translate(-15690.104 -6899.675)" fill="#315e9c" stroke="#315e9c" stroke-width="0.5"/>
    </g>
    <rect id="Rectangle_1820" data-name="Rectangle 1820" width="72" height="72" transform="translate(-15809.5 -6854.5)" fill="none"/>
  </g>
</svg>
