<?xml version="1.0" encoding="utf-8"?>
<!-- Generator: Adobe Illustrator 22.1.0, SVG Export Plug-In . SVG Version: 6.00 Build 0)  -->
<svg version="1.1" id="Layer_1" xmlns="http://www.w3.org/2000/svg" xmlns:xlink="http://www.w3.org/1999/xlink" x="0px" y="0px"
	 viewBox="0 0 1382 400.2" style="enable-background:new 0 0 1382 400.2;" xml:space="preserve">
<style type="text/css">
	.st0{fill:#2F68B1;}
	.st1{fill:#ED1C24;}
	.st2{fill:url(#SVGID_1_);}
	.st3{clip-path:url(#SVGID_3_);}
	.st4{enable-background:new    ;}
	.st5{clip-path:url(#SVGID_15_);}
	.st6{fill:url(#SVGID_16_);}
</style>
<g>
	<path class="st0" d="M64.3,69H145c58.1,0,98,38.5,98,97.7c0,59.2-39.9,97.7-98,97.7H64.3V69z M143,227.3
		c35.3,0,58.4-23.2,58.4-60.6c0-37.4-23.1-60.6-58.4-60.6h-37.6v121.2H143z"/>
	<path class="st0" d="M246.9,69c0-13.7,9.9-24.3,24.6-24.3c14.7,0,24.6,10.1,24.6,23.5c0,14.5-9.9,25.1-24.6,25.1
		C256.8,93.3,246.9,82.7,246.9,69z"/>
	<rect x="251.7" y="114.2" class="st0" width="39.6" height="150.3"/>
	<path class="st0" d="M419,114.2v19.3C408.6,119,392.9,112,373.8,112c-37.8,0-68.3,28.8-68.3,72.6c0,43.8,30.5,72.6,68.3,72.6
		c17.8,0,32.8-6.1,43.2-18.7v6.4c0,27.1-12.2,41.1-40.1,41.1c-17.5,0-36.6-6.7-48.2-17l-15.8,31.3c16,13.7,41.1,20.7,67,20.7
		c49.3,0,76.7-25.7,76.7-81.5V114.2H419z M381.7,221.5c-20.8,0-36-14.8-36-36.9c0-22.1,15.2-36.9,36-36.9
		c20.8,0,35.8,14.8,35.8,36.9C417.5,206.7,402.5,221.5,381.7,221.5z"/>
	<path class="st0" d="M466.5,69c0-13.7,9.9-24.3,24.6-24.3s24.6,10.1,24.6,23.5c0,14.5-9.9,25.1-24.6,25.1S466.5,82.7,466.5,69z"/>
	<rect x="471.3" y="114.2" class="st0" width="39.6" height="150.3"/>
	<path class="st0" d="M587.2,105.9h-56.9V69h154.9v36.9h-56.9v158.6h-41.1V105.9z"/>
	<path class="st0" d="M793.9,178.8v85.7h-37.1v-18.7c-7.4,13.7-21.6,20.9-41.6,20.9c-32,0-51-19.5-51-45.5c0-26.5,17-45,58.6-45
		h31.5c0-18.7-10.2-29.6-31.5-29.6c-14.5,0-29.5,5.3-39.4,14l-14.2-30.4c15-11.7,37.1-18.2,58.9-18.2
		C769.8,112,793.9,133.2,793.9,178.8z M754.3,217v-15.4h-27.2c-18.5,0-24.4,7.5-24.4,17.6c0,10.9,8.4,18.2,22.3,18.2
		C738.3,237.4,749.7,230.7,754.3,217z"/>
	<path class="st0" d="M812.4,69c0-13.7,9.9-24.3,24.6-24.3s24.6,10.1,24.6,23.5c0,14.5-9.9,25.1-24.6,25.1S812.4,82.7,812.4,69z"/>
	<rect x="817.3" y="114.2" class="st0" width="39.6" height="150.3"/>
	<polygon class="st0" points="939.9,205.6 920.9,226.2 920.9,264.5 881.3,264.5 881.3,57.3 920.9,57.3 920.9,174.6 978.7,114.2 
		1026,114.2 969.1,177.9 1031.1,264.5 983.1,264.5 	"/>
	<path class="st0" d="M1164.3,189.9c0-48.3-31-77.9-71.1-77.9c-41.6,0-72.9,32.4-72.9,77.4c0,44.7,30.7,77.4,77.9,77.4
		c24.6,0,43.7-8.4,56.4-24.3l-21.1-25.1c-9.4,9.8-19.8,14.5-34.3,14.5c-20.8,0-35.3-11.4-39.1-30.2h103.3
		C1163.8,198,1164.3,193.3,1164.3,189.9z M1059.7,176.2c2.8-19.3,15.7-31.3,33.8-31.3c17.8,0,30.7,12.3,33.5,31.3H1059.7z"/>
	<path class="st0" d="M1317.7,178.5v86h-39.6v-79.3c0-24.3-10.2-35.5-27.7-35.5c-19,0-32.8,12.8-32.8,40.5v74.3h-39.6V114.2h37.8
		v17.6c10.7-12.8,26.7-19.8,45.2-19.8C1293.3,112,1317.7,132.7,1317.7,178.5z"/>
	<path class="st1" d="M881.8,354.6l-8.5-15.9h-26.8l4.7-8.9h17.4l-12.6-23.6l-25.7,48.4h-11.3l32.6-60.3c1.2-2.2,2.7-3.6,4.8-3.6
		c2.2,0,3.6,1.4,4.8,3.6l32.7,60.3H881.8z"/>
	<path class="st1" d="M918.2,354.6c-15.8,0-27.5-13.9-27.5-32.2c0-18.6,11.7-30.9,27.5-30.9h30.7v11h-30.7
		c-10.1,0-17.6,8.4-17.6,20.4c0,11.9,7.4,20.6,17.6,20.6h30.7v11H918.2z"/>
	<path class="st1" d="M1016.1,354.6l-8.5-15.9h-26.8l4.7-8.9h17.4l-12.6-23.6l-25.7,48.4h-11.3l32.6-60.3c1.2-2.2,2.7-3.6,4.8-3.6
		s3.6,1.4,4.8,3.6l32.7,60.3H1016.1z"/>
	<path class="st1" d="M1034.2,354.6v-63h32.8c16,0,27.6,12.6,27.6,30.9c0,18.3-11.6,32.2-27.6,32.2H1034.2z M1067,343.6
		c10.2,0,17.7-8.8,17.7-20.6s-7.5-20.4-17.7-20.4h-23v41H1067z"/>
	<path class="st1" d="M1102.7,354.6v-63h50.6v11h-40.8v41h40.9v11H1102.7z M1119.8,327.2v-9.3h31.4v9.3H1119.8z"/>
	<path class="st1" d="M1232.6,354.6l-10.8-44.3l-16.1,41c-1.1,2.7-2.7,4.2-5.1,4.2c-2.3,0-4.1-1.5-5.1-4.2l-16-41l-10.8,44.3h-9.8
		l14.6-59.3c0.7-3,2.3-4.5,4.9-4.5c2.1,0,4.1,1.3,5,3.7l17.5,44.6l17.5-44.6c0.9-2.4,2.7-3.7,4.8-3.7c2.4,0,4,1.5,4.8,4.5l14.5,59.3
		H1232.6z"/>
	<path class="st1" d="M1264.6,354.6v-23.9l-30.1-39.1h13.3l22.1,29l22.2-29h12.6l-30.2,39.1v23.9H1264.6z"/>
	
		<linearGradient id="SVGID_1_" gradientUnits="userSpaceOnUse" x1="4258.3369" y1="1426.348" x2="4258.9146" y2="1426.348" gradientTransform="matrix(602.5972 0 0 -556.9459 -2565587.75 794730.5)">
		<stop  offset="0" style="stop-color:#D32027"/>
		<stop  offset="0.27" style="stop-color:#F6EC23"/>
		<stop  offset="0.34" style="stop-color:#ECE827"/>
		<stop  offset="0.44" style="stop-color:#CCDC31"/>
		<stop  offset="0.59" style="stop-color:#9CCB3B"/>
		<stop  offset="0.76" style="stop-color:#5EBB47"/>
		<stop  offset="0.93" style="stop-color:#18A84B"/>
		<stop  offset="1" style="stop-color:#18A84B"/>
	</linearGradient>
	<path class="st2" d="M481.9,325h308.7c3,0,5.4,3.1,5.4,6.9v0c0,3.8-2.4,6.9-5.4,6.9H481.9c-3,0-5.4-3.1-5.4-6.9v0
		C476.5,328,478.9,325,481.9,325z"/>
</g>
</svg>
