<?xml version="1.0" encoding="utf-8"?>
<!-- Generator: Adobe Illustrator 22.1.0, SVG Export Plug-In . SVG Version: 6.00 Build 0)  -->
<svg version="1.1" id="Layer_1" xmlns="http://www.w3.org/2000/svg" xmlns:xlink="http://www.w3.org/1999/xlink" x="0px" y="0px"
	 viewBox="0 0 1382 400.2" style="enable-background:new 0 0 1382 400.2;" xml:space="preserve">
<style type="text/css">
	.st0{clip-path:url(#SVGID_2_);}
	.st1{clip-path:url(#SVGID_4_);}
	.st2{fill:#2F68B1;}
	.st3{font-family:'Montserrat-Bold';}
	.st4{font-size:253.8979px;}
	.st5{clip-path:url(#SVGID_6_);}
	.st6{letter-spacing:-12;}
	.st7{clip-path:url(#SVGID_8_);}
	.st8{clip-path:url(#SVGID_10_);}
	.st9{clip-path:url(#SVGID_12_);}
	.st10{letter-spacing:-18;}
	.st11{enable-background:new    ;}
	.st12{clip-path:url(#SVGID_14_);}
	.st13{fill:#ED1C24;}
	.st14{fill:url(#SVGID_15_);}
	.st15{clip-path:url(#SVGID_17_);}
	.st16{clip-path:url(#SVGID_29_);}
	.st17{fill:url(#SVGID_30_);}
</style>
<g>
	<g>
		<defs>
			<rect id="SVGID_1_" x="65.1" y="22.8" width="1251.7" height="311.7"/>
		</defs>
		<clipPath id="SVGID_2_">
			<use xlink:href="#SVGID_1_"  style="overflow:visible;"/>
		</clipPath>
		<g class="st0">
			<defs>
				<rect id="SVGID_3_" x="65.1" y="22.8" width="199.8" height="311.7"/>
			</defs>
			<clipPath id="SVGID_4_">
				<use xlink:href="#SVGID_3_"  style="overflow:visible;"/>
			</clipPath>
			<g class="st1">
				<text transform="matrix(1 0 0 1.1 65.1499 260.2062)" class="st2 st3 st4">D</text>
			</g>
		</g>
		<g class="st0">
			<defs>
				<rect id="SVGID_5_" x="246.2" y="22.8" width="228.8" height="311.7"/>
			</defs>
			<clipPath id="SVGID_6_">
				<use xlink:href="#SVGID_5_"  style="overflow:visible;"/>
			</clipPath>
			<g class="st5">
				<text transform="matrix(1 0 0 1.1 246.166 260.2062)"><tspan x="0" y="0" class="st2 st3 st4 st6">i</tspan><tspan x="64" y="0" class="st2 st3 st4">g</tspan></text>
			</g>
		</g>
		<g class="st0">
			<defs>
				<rect id="SVGID_7_" x="464.3" y="22.8" width="63.7" height="311.7"/>
			</defs>
			<clipPath id="SVGID_8_">
				<use xlink:href="#SVGID_7_"  style="overflow:visible;"/>
			</clipPath>
			<g class="st7">
				<text transform="matrix(1 0 0 1.1 464.2622 260.2062)" class="st2 st3 st4">i</text>
			</g>
		</g>
		<g class="st0">
			<defs>
				<rect id="SVGID_9_" x="524.4" y="22.8" width="155.9" height="311.7"/>
			</defs>
			<clipPath id="SVGID_10_">
				<use xlink:href="#SVGID_9_"  style="overflow:visible;"/>
			</clipPath>
			<g class="st8">
				<text transform="matrix(1 0 0 1.1 524.4321 260.2062)" class="st2 st3 st4">T</text>
			</g>
		</g>
		<g class="st0">
			<defs>
				<rect id="SVGID_11_" x="649.9" y="22.8" width="667" height="311.7"/>
			</defs>
			<clipPath id="SVGID_12_">
				<use xlink:href="#SVGID_11_"  style="overflow:visible;"/>
			</clipPath>
			<g class="st9">
				<text transform="matrix(1 0 0 1.1 649.8672 260.2062)"><tspan x="0" y="0" class="st2 st3 st4 st6">ai</tspan><tspan x="208.2" y="0" class="st2 st3 st4 st10">k</tspan><tspan x="357.5" y="0" class="st2 st3 st4 st6">e</tspan><tspan x="505" y="0" class="st2 st3 st4">n</tspan></text>
			</g>
		</g>
	</g>
	<g class="st11">
		<g>
			<defs>
				<polygon id="SVGID_13_" points="822.2,377.4 1310,371.4 1310,285.1 822.2,285.1 				"/>
			</defs>
			<clipPath id="SVGID_14_">
				<use xlink:href="#SVGID_13_"  style="overflow:visible;"/>
			</clipPath>
			<g class="st12">
				<path class="st13" d="M886.3,354l-8.5-15.9h-26.8l4.7-8.9H873l-12.6-23.6L834.6,354h-11.3l32.6-60.3c1.2-2.2,2.7-3.6,4.8-3.6
					s3.6,1.4,4.8,3.6l32.7,60.3H886.3z"/>
				<path class="st13" d="M922.6,354c-15.8,0-27.5-13.9-27.5-32.2c0-18.6,11.7-30.9,27.5-30.9h30.7v11h-30.7
					c-10.1,0-17.6,8.4-17.6,20.4c0,11.9,7.4,20.6,17.6,20.6h30.7v11H922.6z"/>
				<path class="st13" d="M1020.5,354l-8.5-15.9h-26.8l4.7-8.9h17.4l-12.6-23.6L968.9,354h-11.3l32.6-60.3c1.2-2.2,2.7-3.6,4.8-3.6
					c2.2,0,3.6,1.4,4.8,3.6l32.7,60.3H1020.5z"/>
				<path class="st13" d="M1038.6,354v-63h32.8c16,0,27.6,12.6,27.6,30.9c0,18.3-11.6,32.2-27.6,32.2H1038.6z M1071.4,343
					c10.2,0,17.7-8.8,17.7-20.6c0-11.9-7.5-20.4-17.7-20.4h-23v41H1071.4z"/>
				<path class="st13" d="M1107.1,354v-63h50.6v11H1117v41h40.9v11H1107.1z M1124.2,326.6v-9.3h31.4v9.3H1124.2z"/>
				<path class="st13" d="M1237,354l-10.8-44.3l-16.1,41c-1.1,2.7-2.7,4.2-5.1,4.2c-2.3,0-4.1-1.5-5.1-4.2l-16-41l-10.8,44.3h-9.8
					l14.6-59.3c0.7-3,2.3-4.5,4.9-4.5c2.1,0,4.1,1.3,5,3.7l17.5,44.6l17.5-44.6c0.9-2.4,2.7-3.7,4.8-3.7c2.4,0,4,1.5,4.8,4.5
					l14.5,59.3H1237z"/>
				<path class="st13" d="M1269,354v-23.9l-30.1-39.1h13.3l22.1,29l22.2-29h12.6l-30.2,39.1V354H1269z"/>
			</g>
		</g>
	</g>
	<g>
		
			<linearGradient id="SVGID_15_" gradientUnits="userSpaceOnUse" x1="4258.3442" y1="1426.3512" x2="4258.9219" y2="1426.3512" gradientTransform="matrix(602.5972 0 0 -556.9459 -2565587.75 794730.5)">
			<stop  offset="0" style="stop-color:#D32027"/>
			<stop  offset="0.27" style="stop-color:#F6EC23"/>
			<stop  offset="0.34" style="stop-color:#ECE827"/>
			<stop  offset="0.44" style="stop-color:#CCDC31"/>
			<stop  offset="0.59" style="stop-color:#9CCB3B"/>
			<stop  offset="0.76" style="stop-color:#5EBB47"/>
			<stop  offset="0.93" style="stop-color:#18A84B"/>
			<stop  offset="1" style="stop-color:#18A84B"/>
		</linearGradient>
		<path class="st14" d="M486.3,323.2H795c3,0,5.4,3.1,5.4,6.9v0c0,3.8-2.4,6.9-5.4,6.9H486.3c-3,0-5.4-3.1-5.4-6.9v0
			C480.9,326.3,483.3,323.2,486.3,323.2z"/>
	</g>
</g>
</svg>
