<svg xmlns="http://www.w3.org/2000/svg" width="24" height="24" viewBox="0 0 24 24">
  <g id="Group_10869" data-name="Group 10869" transform="translate(13981 -15018)">
    <rect id="Rectangle_1952" data-name="Rectangle 1952" width="24" height="24" transform="translate(-13981 15018)" fill="none"/>
    <g id="Icon_feather-instagram" data-name="Icon feather-instagram" transform="translate(-13979 15020)">
      <path id="Path_2875" data-name="Path 2875" d="M8.012,3H18.036a5.012,5.012,0,0,1,5.012,5.012V18.036a5.012,5.012,0,0,1-5.012,5.012H8.012A5.012,5.012,0,0,1,3,18.036V8.012A5.012,5.012,0,0,1,8.012,3Z" transform="translate(-3 -3)" fill="none" stroke="#fff" stroke-linecap="round" stroke-linejoin="round" stroke-width="2"/>
      <path id="Path_2876" data-name="Path 2876" d="M20.041,15.356a4.01,4.01,0,1,1-3.378-3.378A4.01,4.01,0,0,1,20.041,15.356Z" transform="translate(-6.007 -5.964)" fill="none" stroke="#fff" stroke-linecap="round" stroke-linejoin="round" stroke-width="2"/>
      <path id="Path_2877" data-name="Path 2877" d="M26.25,9.75h0" transform="translate(-10.713 -5.239)" fill="none" stroke="#fff" stroke-linecap="round" stroke-linejoin="round" stroke-width="2"/>
    </g>
  </g>
</svg>
