<svg xmlns="http://www.w3.org/2000/svg" width="24" height="24" viewBox="0 0 24 24">
  <g id="Group_11061" data-name="Group 11061" transform="translate(21647 -10017)">
    <rect id="Rectangle_1711" data-name="Rectangle 1711" width="24" height="24" transform="translate(-21647 10017)" fill="none"/>
    <path id="Icon_awesome-linkedin" data-name="Icon awesome-linkedin" d="M18.093,2.25H1.387A1.4,1.4,0,0,0,0,3.655V20.33a1.4,1.4,0,0,0,1.387,1.4H18.093a1.4,1.4,0,0,0,1.392-1.4V3.655A1.4,1.4,0,0,0,18.093,2.25Zm-12.2,16.7H3v-9.3H5.893v9.3ZM4.445,8.382A1.674,1.674,0,1,1,6.119,6.708,1.675,1.675,0,0,1,4.445,8.382ZM16.714,18.951H13.826V14.428c0-1.079-.022-2.466-1.5-2.466-1.5,0-1.735,1.174-1.735,2.388v4.6H7.7v-9.3h2.77v1.27h.039a3.042,3.042,0,0,1,2.736-1.5c2.923,0,3.466,1.927,3.466,4.432Z" transform="translate(-21645 10016.75)" fill="#fff"/>
  </g>
</svg>
