<svg xmlns="http://www.w3.org/2000/svg" width="48" height="48" viewBox="0 0 48 48">
  <g id="Group_10686" data-name="Group 10686" transform="translate(18663 6147)">
    <rect id="Rectangle_1798" data-name="Rectangle 1798" width="48" height="48" transform="translate(-18663 -6147)" fill="none"/>
    <g id="Group_10456" data-name="Group 10456" transform="translate(39.371 183)">
      <path id="Path_12237" data-name="Path 12237" d="M176.995,42.833a2.3,2.3,0,1,0,4.6,0,2.265,2.265,0,0,0-1.8-2.241V30c0-.021.018-.042.016-.062a.435.435,0,0,0-.331-.557l-14.442-5.31a.531.531,0,0,0-.368,0l-14.444,5.309a.535.535,0,0,0-.351.5.528.528,0,0,0,.332.5l4.335,1.69v5.3a.534.534,0,0,0,.347.5c.093.034.188.067.278.1v4.552a9.9,9.9,0,0,0,2.853,6.92,8.394,8.394,0,0,0,1.43,1.2v2.308h-3.974a6.772,6.772,0,0,0-6.734,6.8v5.514a.5.5,0,0,0,.5.533h31.233a.567.567,0,0,0,.573-.533V59.754a6.838,6.838,0,0,0-6.81-6.8h-3.987V50.662a8.7,8.7,0,0,0,1.442-1.215,9.888,9.888,0,0,0,2.841-6.92V37.975c.089-.034.185-.066.278-.1a.533.533,0,0,0,.347-.5v-5.3l3.569-1.406V40.6a2.309,2.309,0,0,0-1.727,2.232Zm3.551,0a1.232,1.232,0,1,1-.361-.869,1.23,1.23,0,0,1,.361.869Zm-.574,16.921v4.977H149.81V59.755a5.7,5.7,0,0,1,5.663-5.731h4.318l4.638,3.044a.535.535,0,0,0,.576,0l4.878-3.044h4.349a5.766,5.766,0,0,1,5.74,5.731Zm-10.8-6.534L164.736,56l-4.217-2.772V51.3a9.308,9.308,0,0,0,8.655.013Zm4.283-10.693A8.812,8.812,0,0,1,170.93,48.7a8.405,8.405,0,0,1-12.161,0,8.821,8.821,0,0,1-2.534-6.173V38.338a28.862,28.862,0,0,0,8.611,1.33,28.433,28.433,0,0,0,8.61-1.329ZM174.082,37h0a27.488,27.488,0,0,1-18.472,0V32.49L164.65,36h0a.558.558,0,0,0,.4,0l9.035-3.514Zm.383-5.808h0a.529.529,0,0,0-.089.034l-9.523,3.706-9.523-3.707a.515.515,0,0,0-.089-.034l-3.32-1.292,12.931-4.753L177.784,29.9Z" transform="translate(-18843.109 -6351.039)" fill="#fff"/>
    </g>
  </g>
</svg>
