<svg xmlns="http://www.w3.org/2000/svg" width="48" height="48" viewBox="0 0 48 48">
  <g id="Group_10687" data-name="Group 10687" transform="translate(15679 5857)">
    <g id="Group_10523" data-name="Group 10523">
      <rect id="Rectangle_1798" data-name="Rectangle 1798" width="48" height="48" transform="translate(-15679 -5857)" fill="none"/>
      <g id="Group_10520" data-name="Group 10520" transform="translate(-50.187 -11.442)">
        <path id="Path_12246" data-name="Path 12246" d="M320.345,280h-1.336a1.336,1.336,0,1,1-2.673,0H315a2.673,2.673,0,1,0,5.345,0Z" transform="translate(-15922.445 -6101.844)" fill="#fff"/>
        <path id="Path_12247" data-name="Path 12247" d="M143.234,39.675l-6.855-2.805a2,2,0,0,1-1.246-1.855v-.48a12.368,12.368,0,0,0,4.516-5.744h.161a3.345,3.345,0,0,0,3.341-3.341V20.1a11.359,11.359,0,1,0-22.718,0V25.45a3.345,3.345,0,0,0,3.341,3.341h.161a12.371,12.371,0,0,0,4.516,5.744v.48a2,2,0,0,1-1.245,1.855l-6.855,2.8a10.584,10.584,0,0,0-6.6,9.83v.668h36.082V49.5a10.581,10.581,0,0,0-6.6-9.83Zm-7.361-1.568,1,.41-1.923,3.847-2.213-2.213,2.439-2.439a3.364,3.364,0,0,0,.7.4Zm-3.29-16H131a2,2,0,0,0-1.882-1.336h-3.992a3.327,3.327,0,0,1,2.655-1.336h4.455a3.36,3.36,0,0,0,2-.668L135.4,17.9a2.339,2.339,0,0,1,3.742,1.871V20.9a1.972,1.972,0,0,0-.667-.123h-4.009a2,2,0,0,0-1.882,1.336Zm-8.141.668a.669.669,0,0,1,.668-.668h4.009a.669.669,0,0,1,.668.668v1.336a.669.669,0,0,1-.668.668h-4.009a.669.669,0,0,1-.668-.668Zm9.355,0a.669.669,0,0,1,.668-.668h4.009a.669.669,0,0,1,.668.668v1.336a.669.669,0,0,1-.668.668h-4.009a.669.669,0,0,1-.668-.668Zm6.29,4.649a12.409,12.409,0,0,0,.392-3.078v-.78a1.994,1.994,0,0,1-.392,3.858Zm-8.295-17.345A10.034,10.034,0,0,1,141.816,20.1V22.8a3.309,3.309,0,0,0-1.336-.617V19.771a3.675,3.675,0,0,0-5.88-2.94l-1.158.869a2.018,2.018,0,0,1-1.2.4h-4.454a4.682,4.682,0,0,0-4.634,4.072,3.3,3.3,0,0,0-1.38.622V20.1a10.034,10.034,0,0,1,10.023-10.023ZM121.77,25.45a2,2,0,0,1,1.336-1.882v.78a12.41,12.41,0,0,0,.392,3.078,2,2,0,0,1-1.728-1.977Zm2.8.585a1.958,1.958,0,0,0,.538.083h4.009a2.007,2.007,0,0,0,2-2v-.668h1.336v.668a2.007,2.007,0,0,0,2,2h4.009a1.958,1.958,0,0,0,.538-.083,11.039,11.039,0,0,1-7.22,8.731A11.038,11.038,0,0,1,124.573,26.036Zm7.008,10.072.211.07.211-.07a12.509,12.509,0,0,0,1.817-.77,3.317,3.317,0,0,0,.453,1.387l-2.481,2.481-2.482-2.482a3.328,3.328,0,0,0,.453-1.387,12.534,12.534,0,0,0,1.817.77Zm-3.87,2a3.371,3.371,0,0,0,.7-.4l2.44,2.44-2.213,2.213-1.923-3.847Zm15.44,10.73V44.828h-1.336v4.009h-9.355V47.5h-1.336v1.336H121.77V44.828h-1.336v4.009h-5.322a9.251,9.251,0,0,1,5.746-7.926l4.614-1.888,2.8,5.6,3.524-3.524,3.524,3.524,2.8-5.6,4.614,1.888a9.247,9.247,0,0,1,5.746,7.924h-5.323Z" transform="translate(-15736.564 -5851.303)" fill="#fff"/>
        <path id="Path_12248" data-name="Path 12248" d="M341.25,446.25h1.336v4.107H341.25Z" transform="translate(-15946.689 -6255.399)" fill="#fff"/>
      </g>
    </g>
  </g>
</svg>
