<svg xmlns="http://www.w3.org/2000/svg" width="24" height="24" viewBox="0 0 24 24">
  <g id="Group_10870" data-name="Group 10870" transform="translate(13921 -15018)">
    <rect id="Rectangle_1951" data-name="Rectangle 1951" width="24" height="24" transform="translate(-13921 15018)" fill="none"/>
    <path id="Icon_ionic-logo-twitter" data-name="Icon ionic-logo-twitter" d="M23.326,6.613a9.089,9.089,0,0,1-2.582.71,4.511,4.511,0,0,0,1.978-2.489,8.933,8.933,0,0,1-2.856,1.091A4.494,4.494,0,0,0,12.089,9a4.4,4.4,0,0,0,.116,1.026,12.74,12.74,0,0,1-9.268-4.7,4.5,4.5,0,0,0,1.4,6.009,4.391,4.391,0,0,1-2.043-.562v.056A4.5,4.5,0,0,0,5.9,15.236a4.525,4.525,0,0,1-1.184.158,4.241,4.241,0,0,1-.845-.084,4.5,4.5,0,0,0,4.2,3.125,9.013,9.013,0,0,1-5.586,1.927A9.113,9.113,0,0,1,1.413,20.3a12.566,12.566,0,0,0,6.882,2.034A12.715,12.715,0,0,0,21.1,9.524c0-.2,0-.39-.014-.58A9.152,9.152,0,0,0,23.326,6.613Z" transform="translate(-13921.413 15016.5)" fill="#fff"/>
  </g>
</svg>
