<svg xmlns="http://www.w3.org/2000/svg" width="24" height="24" viewBox="0 0 24 24">
  <g id="Group_11236" data-name="Group 11236" transform="translate(11515 -11641)">
    <g id="Group_11235" data-name="Group 11235" transform="translate(-8619 14524)">
      <rect id="Rectangle_2051" data-name="Rectangle 2051" width="24" height="24" transform="translate(-2896 -2883)" fill="none"/>
      <g id="Icon_feather-calendar" data-name="Icon feather-calendar" transform="translate(-2896.5 -2883)">
        <path id="Path_12352" data-name="Path 12352" d="M6.278,6H18.722A1.778,1.778,0,0,1,20.5,7.779v12.45a1.778,1.778,0,0,1-1.778,1.779H6.278A1.778,1.778,0,0,1,4.5,20.228V7.779A1.778,1.778,0,0,1,6.278,6Z" transform="translate(0 -1.229)" fill="none" stroke="#333" stroke-linecap="round" stroke-linejoin="round" stroke-width="2"/>
        <path id="Path_12353" data-name="Path 12353" d="M24,3V6.542" transform="translate(-7.944)" fill="none" stroke="#333" stroke-linecap="round" stroke-linejoin="round" stroke-width="2"/>
        <path id="Path_12354" data-name="Path 12354" d="M12,3V6.542" transform="translate(-3.056)" fill="none" stroke="#333" stroke-linecap="round" stroke-linejoin="round" stroke-width="2"/>
        <path id="Path_12355" data-name="Path 12355" d="M4.5,15h16" transform="translate(0 -4.889)" fill="none" stroke="#333" stroke-linecap="round" stroke-linejoin="round" stroke-width="2"/>
      </g>
    </g>
  </g>
</svg>
