<svg xmlns="http://www.w3.org/2000/svg" width="72" height="72" viewBox="0 0 72 72">
  <g id="Group_10509" data-name="Group 10509" transform="translate(15809.5 6854.5)">
    <rect id="Rectangle_1820" data-name="Rectangle 1820" width="72" height="72" transform="translate(-15809.5 -6854.5)" fill="none"/>
    <g id="Group_10511" data-name="Group 10511" transform="translate(-170.5 -186.5)">
      <g id="Group_10490" data-name="Group 10490" transform="translate(-291.617 -406)">
        <path id="Path_12238" data-name="Path 12238" d="M207.809,268.763h-2.447V250.432a2.591,2.591,0,0,0-2.587-2.588h-9.9a.691.691,0,0,0,0,1.382h9.9a1.208,1.208,0,0,1,1.206,1.206v18.332H189.761a.691.691,0,0,0-.671.526l-.423,1.727h-6.687l-.423-1.727a.691.691,0,0,0-.671-.526H166.669V250.432a1.208,1.208,0,0,1,1.206-1.206h9.586a.691.691,0,1,0,0-1.382h-9.586a2.591,2.591,0,0,0-2.587,2.588v18.332H162.84a.691.691,0,0,0-.691.691V271.2a5.663,5.663,0,0,0,5.657,5.657h35.037A5.663,5.663,0,0,0,208.5,271.2v-1.747a.691.691,0,0,0-.691-.691Zm-.691,2.439h0a4.279,4.279,0,0,1-4.275,4.275H167.806a4.279,4.279,0,0,1-4.275-4.275v-1.056h16.814l.423,1.727h0a.691.691,0,0,0,.671.526h7.771a.691.691,0,0,0,.671-.526l.423-1.727h16.814Z" transform="translate(-15497.531 -6478.752)" fill="#315e9c" stroke="#315e9c" stroke-width="0.5"/>
        <path id="Path_12239" data-name="Path 12239" d="M259.877,92.423a2.6,2.6,0,1,0,0-1.382h-4.635a.689.689,0,0,0-.691.691v19.839h-2.778V81.987a2.6,2.6,0,1,0-1.382,0v29.584h-2.778V87.152a.691.691,0,0,0-.691-.691h-4.635a2.6,2.6,0,1,0,0,1.382h3.945V111.57h-2.994a.691.691,0,1,0,0,1.382h16.95a.691.691,0,0,0,0-1.382h-4.256V92.422Zm2.493-1.908a1.217,1.217,0,1,1-1.217,1.217,1.217,1.217,0,0,1,1.217-1.217Zm-12.5-11.022a1.217,1.217,0,1,1,1.217,1.217,1.217,1.217,0,0,1-1.217-1.217ZM239.794,88.37a1.217,1.217,0,1,1,1.217-1.217,1.216,1.216,0,0,1-1.217,1.217Z" transform="translate(-15563.31 -6328.882)" fill="#315e9c" stroke="#315e9c" stroke-width="0.5"/>
      </g>
      <rect id="Rectangle_1820-2" data-name="Rectangle 1820" width="72" height="72" transform="translate(-15639 -6668)" fill="none"/>
    </g>
  </g>
</svg>
