<svg xmlns="http://www.w3.org/2000/svg" width="72" height="72" viewBox="0 0 72 72">
  <g id="Group_10500" data-name="Group 10500" transform="translate(15189 6936)">
    <g id="Group_10494" data-name="Group 10494" transform="translate(185.363 -149.635)">
      <g id="Group_10492" data-name="Group 10492" transform="translate(-15365.363 -6777.365)">
        <path id="noun-knowledge-3659628" d="M107.331,11.823a.544.544,0,0,0-.536.551v5.6a.544.544,0,1,0,1.088,0v-5.6a.544.544,0,0,0-.552-.551Zm-7.124,1.9h0a.543.543,0,0,0-.446.822l2.8,4.853a.544.544,0,1,0,.942-.543l-2.8-4.853h0a.545.545,0,0,0-.5-.278Zm14.249,0h0a.544.544,0,0,0-.479.278l-2.8,4.853h0a.544.544,0,1,0,.942.543l2.8-4.853a.543.543,0,0,0-.463-.822Zm-19.413,5.2h0a.543.543,0,0,0-.285,1.017l4.855,2.8h0a.544.544,0,1,0,.544-.941l-4.855-2.8h0a.542.542,0,0,0-.258-.076Zm24.632,0h0a.547.547,0,0,0-.3.076l-4.855,2.8a.544.544,0,1,0,.544.941l4.856-2.8h0a.543.543,0,0,0-.248-1.017Zm-12.293,1.426a6.306,6.306,0,0,0-5.83,8.545,55.174,55.174,0,0,0-13.981-1.81h0a.531.531,0,0,0-.634.541V32.55q-1.138-.1-2.289-.15c-.927-.045-1.861-.065-2.8-.066a.527.527,0,0,0-.1-.01.543.543,0,0,0-.535.551v0h0a.091.091,0,0,0,0,.014V57.83c0,.015,0,.03,0,.045v.01a.446.446,0,0,0,.011.05v0c0,.017.009.034.014.051v0a.47.47,0,0,0,.021.05h0c.008.017.016.033.025.05v0a.526.526,0,0,0,.061.089h0c.011.012.023.024.035.035l0,0a.538.538,0,0,0,.178.114l0,0,.045.014.01,0,.04.01.01,0,.045,0h.01l.035,0A61.831,61.831,0,0,1,104.1,62.5a4.294,4.294,0,0,0,6.49,0,61.828,61.828,0,0,1,22.344-4.13h.025l.045,0,.01,0,.05-.01h0a.542.542,0,0,0,.1-.035h0a.4.4,0,0,0,.045-.025l0,0a.533.533,0,0,0,.086-.063v0c.012-.011.024-.023.035-.035l0,0a.436.436,0,0,0,.035-.04v0a.486.486,0,0,0,.03-.045v0c.009-.015.017-.03.025-.045l0-.011a.574.574,0,0,0,.035-.1v0c0-.016.008-.033.01-.05v-.01c0-.015,0-.03,0-.045V32.861c0-.011,0-.023,0-.035a.544.544,0,0,0-.55-.518.527.527,0,0,0-.084.01c-.94,0-1.874.025-2.8.067-.767.035-1.53.086-2.288.149V27.616h0c0-.012,0-.024,0-.035s0-.024,0-.035v0a.543.543,0,0,0-.547-.478.5.5,0,0,0-.082.01,55.087,55.087,0,0,0-13.891,1.787,6.308,6.308,0,0,0-5.839-8.522Zm0,1.087a5.174,5.174,0,0,1,5.154,5.21,5.221,5.221,0,0,1-2.275,4.323,2.812,2.812,0,0,0-1.294,2.305h0a.577.577,0,0,0,0,.068v.571h-1.088V29.956a2.091,2.091,0,0,0,1.631-2h0a.544.544,0,1,0-1.088,0,1.093,1.093,0,0,1-2.174,0,.544.544,0,1,0-1.088,0,2.091,2.091,0,0,0,1.631,2v3.966h-1.087v-.64h0a.565.565,0,0,0,0-.057,2.788,2.788,0,0,0-1.205-2.249,5.222,5.222,0,0,1,2.879-9.532ZM88.023,28.183A53.908,53.908,0,0,1,102.2,30.207h0l.03.01a6.283,6.283,0,0,0,1.655,1.659,1.572,1.572,0,0,1,.733,1.408v2.9a2.725,2.725,0,0,0,2.175,2.662V57.216a54.7,54.7,0,0,0-18.774-3.482Zm38.636,0V53.731a54.7,54.7,0,0,0-18.774,3.482V38.845a2.725,2.725,0,0,0,2.174-2.662v-2.9h0a.532.532,0,0,0,0-.06,1.608,1.608,0,0,1,.817-1.347,6.3,6.3,0,0,0,1.674-1.687,53.978,53.978,0,0,1,14.11-2ZM82.3,33.427c.771,0,1.538.03,2.3.063.784.035,1.564.088,2.339.154V54.271h0s0,.007,0,.01v.01a.543.543,0,0,0,.677.524,53.547,53.547,0,0,1,19.416,3.649.6.6,0,0,0,.625,0,53.6,53.6,0,0,1,19.549-3.65h.024l.045,0,.01,0,.045-.01h0a.52.52,0,0,0,.1-.035h0c.016-.008.03-.016.045-.025l0,0a.517.517,0,0,0,.086-.062v0c.012-.011.024-.023.035-.035l0,0a.436.436,0,0,0,.035-.04v0a.533.533,0,0,0,.055-.092v0a.552.552,0,0,0,.035-.1v0c0-.017.008-.033.01-.05v-.01a.435.435,0,0,0,0-.045c0-.008,0-.017,0-.025V33.635q1.163-.1,2.339-.154,1.144-.052,2.3-.063V57.285a62.86,62.86,0,0,0-22.312,4.247l-.014,0-.014,0a.544.544,0,0,0-.248.206,3.214,3.214,0,0,1-4.931-.014h0a.546.546,0,0,0-.161-.153.541.541,0,0,0-.167-.075,62.874,62.874,0,0,0-22.246-4.22Zm23.414,1.582h3.262v1.175a1.631,1.631,0,0,1-3.262,0Zm1.95.75h-.631a.543.543,0,1,0,0,1.086h.627a.543.543,0,1,0,0-1.086ZM91.026,37.864h0a.544.544,0,1,0,0,1.087,38.7,38.7,0,0,1,12.592,2.069.544.544,0,1,0,.355-1.028,39.784,39.784,0,0,0-12.947-2.128Zm32.631,0a39.783,39.783,0,0,0-12.947,2.128h0a.543.543,0,1,0,.354,1.028,38.707,38.707,0,0,1,12.593-2.069.544.544,0,1,0,0-1.087ZM91.026,43.327h0a.543.543,0,1,0,0,1.087,38.7,38.7,0,0,1,12.592,2.069.544.544,0,1,0,.355-1.028,39.784,39.784,0,0,0-12.947-2.128Zm32.631,0a39.783,39.783,0,0,0-12.947,2.128h0a.543.543,0,1,0,.354,1.028,38.707,38.707,0,0,1,12.593-2.069.543.543,0,1,0,0-1.087ZM91.026,49.091h0a.544.544,0,0,0,0,1.087,38.7,38.7,0,0,1,12.592,2.069.544.544,0,1,0,.355-1.028,39.784,39.784,0,0,0-12.947-2.128Zm32.631,0a39.783,39.783,0,0,0-12.947,2.128h0a.544.544,0,0,0,.354,1.028,38.707,38.707,0,0,1,12.593-2.069.544.544,0,1,0,0-1.087Z" transform="translate(-81.208 -11.823)" fill="#315e9c" stroke="#315e9c" stroke-width="0.5"/>
      </g>
    </g>
    <rect id="Rectangle_1820" data-name="Rectangle 1820" width="72" height="72" transform="translate(-15189 -6936)" fill="none"/>
  </g>
</svg>
