<svg xmlns="http://www.w3.org/2000/svg" width="72" height="72" viewBox="0 0 72 72">
  <g id="Group_10658" data-name="Group 10658" transform="translate(15705 5651)">
    <rect id="Rectangle_1820" data-name="Rectangle 1820" width="72" height="72" transform="translate(-15705 -5651)" fill="none"/>
    <g id="Group_10543" data-name="Group 10543" transform="translate(18.28 -589)">
      <path id="Path_12294" data-name="Path 12294" d="M222.93,337.21a11.539,11.539,0,0,1-.677-1.364l-1.539.642a13.272,13.272,0,0,0,.775,1.561Z" transform="translate(-15920.312 -5357.552)" fill="#315e9c"/>
      <path id="Path_12295" data-name="Path 12295" d="M213.176,306.479a11.606,11.606,0,0,1-.3-1.5l-1.651.22a13.221,13.221,0,0,0,.341,1.709Z" transform="translate(-15911.726 -5329.627)" fill="#315e9c"/>
      <path id="Path_12296" data-name="Path 12296" d="M471.47,289.925l1.652.216a13.53,13.53,0,0,0,.112-1.757l-.459-.017-1.207.037a11.877,11.877,0,0,1-.1,1.521Z" transform="translate(-16147.192 -5314.593)" fill="#315e9c"/>
      <path id="Path_12297" data-name="Path 12297" d="M210,272.5v.026l1.666-.026a11.959,11.959,0,0,1,.095-1.5l-1.652-.212A13.485,13.485,0,0,0,210,272.5Z" transform="translate(-15910.616 -5298.685)" fill="#315e9c"/>
      <path id="Path_12298" data-name="Path 12298" d="M468.23,252.407a11.666,11.666,0,0,1,.3,1.493l1.651-.222a13.216,13.216,0,0,0-.346-1.709Z" transform="translate(-16144.261 -5281.66)" fill="#315e9c"/>
      <path id="Path_12299" data-name="Path 12299" d="M216.746,236.095l-1.541-.633a13.28,13.28,0,0,0-.556,1.653l1.611.427a11.773,11.773,0,0,1,.486-1.446Z" transform="translate(-15914.822 -5266.725)" fill="#315e9c"/>
      <path id="Path_12300" data-name="Path 12300" d="M455.88,219.137a11.857,11.857,0,0,1,.681,1.364l1.536-.646a13.5,13.5,0,0,0-.777-1.557Z" transform="translate(-16133.086 -5251.195)" fill="#315e9c"/>
      <path id="Path_12301" data-name="Path 12301" d="M229.548,203.77a13.381,13.381,0,0,0-.966,1.45l1.444.832a11.676,11.676,0,0,1,.847-1.27Z" transform="translate(-15927.43 -5238.051)" fill="#315e9c"/>
      <path id="Path_12302" data-name="Path 12302" d="M436.32,190.6a11.674,11.674,0,0,1,1.01,1.144l1.318-1.021a13.509,13.509,0,0,0-1.153-1.3Z" transform="translate(-16115.388 -5225.062)" fill="#315e9c"/>
      <path id="Path_12303" data-name="Path 12303" d="M253.093,179.214l-1.019-1.318a13.426,13.426,0,0,0-1.306,1.153l1.182,1.175a11.663,11.663,0,0,1,1.143-1.009Z" transform="translate(-15947.504 -5214.64)" fill="#315e9c"/>
      <path id="Path_12304" data-name="Path 12304" d="M412.16,169.545l1.01-1.326a13.652,13.652,0,0,0-1.45-.964l-.831,1.445a11.9,11.9,0,0,1,1.271.846Z" transform="translate(-16092.378 -5205.012)" fill="#315e9c"/>
      <path id="Path_12305" data-name="Path 12305" d="M281.87,161.056l-.643-1.538a13.469,13.469,0,0,0-1.559.777l.838,1.44a11.858,11.858,0,0,1,1.365-.679Z" transform="translate(-15973.651 -5198.012)" fill="#315e9c"/>
      <path id="Path_12306" data-name="Path 12306" d="M383.4,153.92a13.129,13.129,0,0,0-1.655-.556l-.425,1.611a11.34,11.34,0,0,1,1.445.486Z" transform="translate(-16065.628 -5192.444)" fill="#315e9c"/>
      <path id="Path_12307" data-name="Path 12307" d="M313.8,151.928a11.724,11.724,0,0,1,1.5-.3l-.222-1.651a13.45,13.45,0,0,0-1.709.343Z" transform="translate(-16004.14 -5189.378)" fill="#315e9c"/>
      <path id="Path_12308" data-name="Path 12308" d="M349.59,148.75l.039,1.666a11.948,11.948,0,0,1,1.487.093l.209-1.653a13.52,13.52,0,0,0-1.7-.107Z" transform="translate(-16036.916 -5188.27)" fill="#315e9c"/>
      <path id="Path_12309" data-name="Path 12309" d="M204.85,212.722l1.645-4.375a2.421,2.421,0,0,0-.087-1.92,2.508,2.508,0,0,0-1.507-1.3,2.62,2.62,0,0,0-3.055,1.22l-1.641,2.858a4.512,4.512,0,0,1-1.885,1.885v-4.418a5.837,5.837,0,0,0-3.467-5.326,5,5,0,1,0-6.394,0,5.837,5.837,0,0,0-3.467,5.326v2.644l-1.191.36a7.777,7.777,0,0,0-5.024,4.565l-.815,2.05c-.508,1.278-.961,2.592-1.346,3.9l-1.587,5.4a.833.833,0,0,0,.8,1.069h9.9a.833.833,0,0,0,.832-.868,3.529,3.529,0,0,1,1.919-3.249L202.05,215.8a5.66,5.66,0,0,0,2.8-3.078Zm-8.2-6.054v5.07l-7.379,2.677a.532.532,0,0,1-.539-.076.385.385,0,0,1-.123-.36.419.419,0,0,1,.255-.3l3.375-1.451a2.476,2.476,0,0,0,1.353-1.43,2.383,2.383,0,0,0-.128-1.913c-.016-.031-.038-.056-.054-.086l.726-3.63a.835.835,0,0,0-.072-.537l-1.035-2.072a4.16,4.16,0,0,1,3.622,4.112Zm-5.168.888-.614-2.457.783-1.566.793,1.586-.5,2.526a2.41,2.41,0,0,0-.457-.089Zm.169-6.72a3.327,3.327,0,0,1-3.311-3.114,5.714,5.714,0,0,1,6.62.01,3.327,3.327,0,0,1-3.309,3.1Zm0-6.665a3.317,3.317,0,0,1,2.638,1.32,7.445,7.445,0,0,0-5.268-.01,3.318,3.318,0,0,1,2.63-1.31Zm-5,12.5a4.158,4.158,0,0,1,3.623-4.11l-1.035,2.072a.84.84,0,0,0-.063.574l.661,2.642-3.185.963Zm1.068,14.391A5.24,5.24,0,0,0,184.935,225H176.94l1.273-4.334c.371-1.263.806-2.528,1.3-3.759l.815-2.05a6.118,6.118,0,0,1,3.958-3.586l6.7-2.025a.86.86,0,0,1,1.006.4.732.732,0,0,1,.04.586.794.794,0,0,1-.442.462l-3.375,1.452a2.087,2.087,0,0,0-1.233,1.524,2.044,2.044,0,0,0,.586,1.853,2.187,2.187,0,0,0,2.283.462l8.607-3.123a6,6,0,0,0,3.2-2.829l1.641-2.858a.959.959,0,0,1,1.095-.465.864.864,0,0,1,.521.441.77.77,0,0,1,.028.611l-1.645,4.375a4,4,0,0,1-1.981,2.171Z" transform="translate(-15878.943 -5227.858)" fill="#315e9c"/>
      <path id="Path_12310" data-name="Path 12310" d="M305,24.316h1.666a.833.833,0,0,0,.64-1.366l-4.165-5a.862.862,0,0,0-1.28,0l-4.165,5a.833.833,0,0,0,.64,1.366H300v4.166h1.666v-5a.833.833,0,0,0-.833-.833h-.721l2.387-2.864,2.387,2.864h-.721a.833.833,0,0,0-.833.833v5H305Z" transform="translate(-15989.784 -5069.667)" fill="#315e9c"/>
      <path id="Path_12311" data-name="Path 12311" d="M463.812,79.909a.831.831,0,0,0,.886-.114l5-4.166a.833.833,0,0,0,0-1.281l-5-4.166a.833.833,0,0,0-1.366.641V72.49h-4.166A4.17,4.17,0,0,0,455,76.656v4.166h1.666V76.656a2.5,2.5,0,0,1,2.5-2.5h5a.833.833,0,0,0,.833-.833V72.6l2.864,2.387L465,77.377v-.721a.833.833,0,0,0-.833-.833h-3.332a2.5,2.5,0,0,0-2.5,2.5v7.5H460v-7.5a.834.834,0,0,1,.833-.833h2.5v1.666a.832.832,0,0,0,.48.754Z" transform="translate(-16132.291 -5117.008)" fill="#315e9c"/>
      <path id="Path_12312" data-name="Path 12312" d="M92.8,79.805a.833.833,0,0,0,1.366-.641V77.5h2.5a.834.834,0,0,1,.833.833v7.5h1.666v-7.5a2.5,2.5,0,0,0-2.5-2.5H93.333a.833.833,0,0,0-.833.833v.721L89.636,75,92.5,72.612v.721a.833.833,0,0,0,.833.833h5a2.5,2.5,0,0,1,2.5,2.5v4.166H102.5V76.665A4.17,4.17,0,0,0,98.332,72.5H94.166V70.833a.834.834,0,0,0-1.366-.641l-5,4.166a.835.835,0,0,0,0,1.282Z" transform="translate(-15799.782 -5117.018)" fill="#315e9c"/>
    </g>
  </g>
</svg>
