<svg xmlns="http://www.w3.org/2000/svg" width="48" height="48" viewBox="0 0 48 48">
  <g id="Group_10689" data-name="Group 10689" transform="translate(15511 5786)">
    <rect id="Rectangle_1824" data-name="Rectangle 1824" width="48" height="48" transform="translate(-15511 -5786)" fill="none"/>
    <g id="Group_10528" data-name="Group 10528" transform="translate(-48.161 12.145)">
      <path id="Path_12272" data-name="Path 12272" d="M163.27,112.332H131.9a.654.654,0,0,1-.653-.653V90.767a3.267,3.267,0,0,1,3.267-3.267h26.138a3.267,3.267,0,0,1,3.267,3.267v20.911a.653.653,0,0,1-.653.653Zm-30.713-1.307h30.059V90.767a1.96,1.96,0,0,0-1.96-1.96H134.517a1.96,1.96,0,0,0-1.96,1.96Z" transform="translate(-15586.475 -5875.646)" fill="#fff"/>
      <path id="Path_12274" data-name="Path 12274" d="M130.883,407.728H99.517a3.267,3.267,0,0,1-3.267-3.267v-1.307a.654.654,0,0,1,.653-.654H133.5a.653.653,0,0,1,.653.654v1.307a3.267,3.267,0,0,1-3.267,3.267Zm-33.327-3.921v.653a1.96,1.96,0,0,0,1.96,1.96h31.366a1.96,1.96,0,0,0,1.96-1.96v-.653Z" transform="translate(-15554.089 -6167.121)" fill="#fff"/>
      <path id="Path_12276" data-name="Path 12276" d="M261.391,179.131a2.08,2.08,0,0,1-.805-.169,9.845,9.845,0,0,0-4.621-.805,2.07,2.07,0,0,1-1.57-.556,1.973,1.973,0,0,1-.644-1.473V168.27a2.028,2.028,0,0,1,2.021-2.021,16,16,0,0,1,6.441,1.344,2.012,2.012,0,0,1,1.2,1.876v7.7a2.012,2.012,0,0,1-.91,1.683,2.043,2.043,0,0,1-1.111.282Zm-4.83-2.649a11.748,11.748,0,0,1,4.653,1.039.419.419,0,0,0,.588-.37V169.47a.411.411,0,0,0-.225-.378,14.493,14.493,0,0,0-5.789-1.232.419.419,0,0,0-.427.41v7.858a.377.377,0,0,0,.121.29.466.466,0,0,0,.362.121q.322-.024.725-.024Z" transform="translate(-15700.828 -5948.421)" fill="#fff"/>
      <path id="Path_12277" data-name="Path 12277" d="M343.268,179.367a2.043,2.043,0,0,1-1.111-.338,2.013,2.013,0,0,1-.91-1.65v-7.672a2,2,0,0,1,1.175-1.844,15.928,15.928,0,0,1,6.441-1.352,2.029,2.029,0,0,1,2.045,2v7.858a1.973,1.973,0,0,1-.636,1.465,2.076,2.076,0,0,1-1.61.555,9.871,9.871,0,0,0-4.621.805,2.08,2.08,0,0,1-.773.177ZM348.9,168.1a14.382,14.382,0,0,0-5.812,1.215.4.4,0,0,0-.234.395v7.7a.386.386,0,0,0,.588.338,11.636,11.636,0,0,1,5.37-.974.46.46,0,0,0,.354-.121.356.356,0,0,0,.129-.29v-7.849a.41.41,0,0,0-.41-.41Z" transform="translate(-15780.276 -5948.658)" fill="#fff"/>
    </g>
  </g>
</svg>
