<svg xmlns="http://www.w3.org/2000/svg" width="48" height="48" viewBox="0 0 48 48">
  <g id="Group_10688" data-name="Group 10688" transform="translate(15461 5772)">
    <rect id="Rectangle_1825" data-name="Rectangle 1825" width="48" height="48" transform="translate(-15461 -5772)" fill="none"/>
    <g id="Group_10527" data-name="Group 10527" transform="translate(116.944 18.535)">
      <g id="Group_10525" data-name="Group 10525" transform="translate(-15572.944 -5785.535)">
        <path id="Path_12251" data-name="Path 12251" d="M492.991,215.973h.993a.886.886,0,0,0,0-1.773h-.993a.886.886,0,0,0,0,1.773Z" transform="translate(-463.899 -199.923)" fill="#fff"/>
        <path id="Path_12253" data-name="Path 12253" d="M492.991,274.333h.993a.886.886,0,0,0,0-1.773h-.993a.886.886,0,0,0,0,1.773Z" transform="translate(-463.899 -250.56)" fill="#fff"/>
        <path id="Path_12255" data-name="Path 12255" d="M165.145,214.2h-.987a.886.886,0,1,0,0,1.773h.987a.886.886,0,1,0,0-1.773Z" transform="translate(-157.274 -199.923)" fill="#fff"/>
        <path id="Path_12257" data-name="Path 12257" d="M329.973,214.2h-.957a.886.886,0,1,0,0,1.773H330a.886.886,0,0,0,0-1.773Z" transform="translate(-310.997 -199.923)" fill="#fff"/>
        <path id="Path_12261" data-name="Path 12261" d="M165.145,330.93h-.987a.886.886,0,1,0,0,1.773h.987a.886.886,0,1,0,0-1.773Z" transform="translate(-157.274 -308.93)" fill="#fff"/>
        <path id="Path_12263" data-name="Path 12263" d="M329.973,330.93h-.957a.886.886,0,1,0,0,1.773H330a.886.886,0,0,0,0-1.773Z" transform="translate(-310.997 -308.93)" fill="#fff"/>
        <path id="Path_12267" data-name="Path 12267" d="M165.145,447.74h-.987a.886.886,0,1,0,0,1.773h.987a.886.886,0,1,0,0-1.773Z" transform="translate(-157.274 -417.69)" fill="#fff"/>
        <path id="Path_12269" data-name="Path 12269" d="M329.973,447.74h-.957a.886.886,0,1,0,0,1.773H330a.886.886,0,0,0,0-1.773Z" transform="translate(-310.997 -417.69)" fill="#fff"/>
        <path id="Path_12270" data-name="Path 12270" d="M111.39,31.651V7.5A3.309,3.309,0,0,0,108.08,4.19h-3.546v-.5a.886.886,0,1,0-1.773,0v.5H99.2v-.5a.886.886,0,1,0-1.773,0v.5h-3.6v-.5a.886.886,0,1,0-1.773,0v.5H88.461v-.5a.886.886,0,0,0-1.773,0v.5h-3.6v-.5a.886.886,0,0,0-1.773,0v.5H77.77A3.309,3.309,0,0,0,74.461,7.5V36.634a3.309,3.309,0,0,0,3.309,3.309h25.086a6.766,6.766,0,0,0,8.533-8.291ZM77.782,5.963h3.546v.5a.886.886,0,1,0,1.773,0v-.5h3.587v.5a.886.886,0,0,0,1.773,0v-.5h3.6v.5a.886.886,0,0,0,1.773,0v-.5h3.6v.5a.886.886,0,0,0,1.773,0v-.5h3.6v.5a.886.886,0,1,0,1.773,0v-.5h3.546a1.543,1.543,0,0,1,1.5,1.536v3.906H76.246V7.5a1.543,1.543,0,0,1,1.537-1.537Zm-1.536,30.67V13.178h33.371V28.62a6.778,6.778,0,0,0-9.633,9.532h-22.2a1.542,1.542,0,0,1-1.537-1.519Zm28.643,1.844a5.011,5.011,0,1,1,3.544-1.468A5.012,5.012,0,0,1,104.889,38.477Z" transform="translate(-74.461 -2.807)" fill="#fff"/>
        <path id="Path_12271" data-name="Path 12271" d="M510.3,412.036h-1.034V410.3a.886.886,0,1,0-1.773,0v2.624h0a.886.886,0,0,0,.886.886h1.944a.886.886,0,0,0,0-1.773Z" transform="translate(-478.252 -381.951)" fill="#fff"/>
      </g>
    </g>
  </g>
</svg>
