<svg xmlns="http://www.w3.org/2000/svg" width="24" height="24" viewBox="0 0 24 24">
  <g id="Group_11240" data-name="Group 11240" transform="translate(11515 -11719)">
    <rect id="Rectangle_2053" data-name="Rectangle 2053" width="24" height="24" transform="translate(-11515 11719)" fill="none"/>
    <path id="Path_12356" data-name="Path 12356" d="M122.29,78.4a1.9,1.9,0,0,0-1.891,1.891V93.769a1.662,1.662,0,0,0,1.655,1.655H138.13a1.662,1.662,0,0,0,1.655-1.655V82.894a1.662,1.662,0,0,0-1.655-1.655h-1.182V78.875a.491.491,0,0,0-.473-.473Zm0,.946H136v1.891H122.29a.946.946,0,1,1,0-1.891Zm-.946,2.578a1.876,1.876,0,0,0,.946.259c5.325,0,11.263,0,15.84,0a.7.7,0,0,1,.709.709v2.837h-6.856a1.19,1.19,0,0,0-1.182,1.182V89.75a1.19,1.19,0,0,0,1.182,1.182h6.856v2.837a.7.7,0,0,1-.709.709H122.054a.7.7,0,0,1-.709-.709Zm10.639,4.75h6.856v3.31h-6.856a.226.226,0,0,1-.236-.236V86.912a.226.226,0,0,1,.236-.236Zm2.364.709a.946.946,0,1,0,.946.946A.946.946,0,0,0,134.348,87.385Z" transform="translate(-11633.398 11643.598)" fill="#333" stroke="#333" stroke-width="0.5"/>
  </g>
</svg>
